<svg xmlns="http://www.w3.org/2000/svg" xmlns:xlink="http://www.w3.org/1999/xlink" width="220" zoomAndPan="magnify" viewBox="0 0 165 82.499998" height="110" preserveAspectRatio="xMidYMid meet" version="1.0"><defs><clipPath id="b306a34684"><path d="M 0.496094 0 L 164.503906 0 L 164.503906 82.003906 L 0.496094 82.003906 Z M 0.496094 0 " clip-rule="nonzero"/></clipPath><clipPath id="9c529f0bf4"><path d="M 143 32 L 156.09375 32 L 156.09375 50 L 143 50 Z M 143 32 " clip-rule="nonzero"/></clipPath><clipPath id="81ca818ad0"><path d="M 8.90625 18.726562 L 54 18.726562 L 54 63.414062 L 8.90625 63.414062 Z M 8.90625 18.726562 " clip-rule="nonzero"/></clipPath></defs><g clip-path="url(#b306a34684)"><path fill="#ffffff" d="M 0.496094 0 L 164.503906 0 L 164.503906 439.835938 L 0.496094 439.835938 Z M 0.496094 0 " fill-opacity="1" fill-rule="nonzero"/><path fill="#ffffff" d="M 0.496094 0 L 164.503906 0 L 164.503906 82.003906 L 0.496094 82.003906 Z M 0.496094 0 " fill-opacity="1" fill-rule="nonzero"/></g><path fill="#151515" d="M 64.734375 49.78125 L 64.734375 37.761719 L 67.859375 37.761719 L 67.859375 38.742188 C 68.78125 37.988281 69.933594 37.53125 71.28125 37.53125 C 72.960938 37.53125 74.472656 38.28125 75.460938 39.460938 C 76.25 40.40625 76.710938 41.613281 76.710938 43.671875 L 76.710938 49.78125 L 73.453125 49.78125 L 73.453125 43.410156 C 73.453125 42.234375 73.191406 41.613281 72.730469 41.15625 C 72.300781 40.734375 71.644531 40.503906 70.917969 40.503906 C 69.539062 40.503906 68.417969 41.386719 67.960938 42.007812 L 67.960938 49.78125 Z M 64.734375 49.78125 " fill-opacity="1" fill-rule="nonzero"/><path fill="#151515" d="M 90 47.855469 C 88.816406 49.226562 86.910156 50.011719 85.03125 50.011719 C 81.414062 50.011719 78.683594 47.527344 78.683594 43.769531 C 78.683594 40.4375 80.988281 37.5 84.574219 37.5 C 87.929688 37.5 90.296875 40.308594 90.296875 43.640625 C 90.296875 43.964844 90.265625 44.292969 90.230469 44.554688 L 81.84375 44.554688 C 82.007812 46.253906 83.386719 47.398438 85.097656 47.398438 C 86.480469 47.398438 87.566406 46.613281 88.160156 46.023438 Z M 86.972656 42.203125 C 86.875 41.125 85.886719 40.113281 84.574219 40.113281 C 83.222656 40.113281 82.136719 41.125 81.972656 42.203125 Z M 86.972656 42.203125 " fill-opacity="1" fill-rule="nonzero"/><path fill="#151515" d="M 92.535156 49.757812 L 92.535156 32.152344 L 95.789062 32.152344 L 95.789062 38.585938 C 96.746094 37.835938 97.894531 37.476562 99.210938 37.476562 C 102.5 37.476562 105.167969 40.1875 105.167969 43.75 C 105.167969 45.382812 104.574219 46.882812 103.621094 47.960938 C 102.535156 49.203125 100.855469 49.988281 99.046875 49.988281 C 97.832031 49.988281 96.679688 49.628906 95.691406 48.777344 L 95.691406 49.757812 Z M 95.789062 45.546875 C 96.414062 46.425781 97.5 47.046875 98.71875 47.046875 C 100.527344 47.046875 101.910156 45.675781 101.910156 43.78125 C 101.910156 42.050781 100.691406 40.480469 98.785156 40.480469 C 97.535156 40.480469 96.449219 41.070312 95.789062 41.984375 Z M 95.789062 45.546875 " fill-opacity="1" fill-rule="nonzero"/><path fill="#151515" d="M 118.886719 37.761719 L 118.886719 49.78125 L 115.757812 49.78125 L 115.757812 48.800781 C 114.804688 49.652344 113.652344 50.011719 112.503906 50.011719 C 110.824219 50.011719 109.34375 49.226562 108.390625 48.082031 C 107.601562 47.136719 107.171875 45.894531 107.171875 44.132812 L 107.171875 37.761719 L 110.429688 37.761719 L 110.429688 44.261719 C 110.429688 45.339844 110.660156 45.894531 111.023438 46.320312 C 111.515625 46.875 112.207031 47.070312 112.832031 47.070312 C 114.214844 47.070312 115.199219 46.15625 115.660156 45.570312 L 115.660156 37.761719 Z M 118.886719 37.761719 " fill-opacity="1" fill-rule="nonzero"/><path fill="#151515" d="M 122.109375 32.152344 L 125.367188 32.152344 L 125.367188 49.757812 L 122.109375 49.757812 Z M 122.109375 32.152344 " fill-opacity="1" fill-rule="nonzero"/><path fill="#151515" d="M 140.234375 49.78125 L 137.109375 49.78125 L 137.109375 48.800781 C 136.125 49.652344 134.972656 50.011719 133.753906 50.011719 C 131.945312 50.011719 130.265625 49.226562 129.183594 47.984375 C 128.226562 46.90625 127.636719 45.402344 127.636719 43.769531 C 127.636719 40.242188 130.265625 37.5 133.589844 37.5 C 134.972656 37.5 136.1875 37.957031 137.144531 38.707031 L 137.144531 37.726562 L 140.269531 37.726562 L 140.269531 49.78125 Z M 136.976562 41.972656 C 136.320312 41.09375 135.234375 40.472656 133.984375 40.472656 C 132.078125 40.472656 130.859375 42.039062 130.859375 43.769531 C 130.859375 45.664062 132.242188 47.039062 134.050781 47.039062 C 135.269531 47.039062 136.355469 46.449219 136.976562 45.535156 Z M 136.976562 41.972656 " fill-opacity="1" fill-rule="nonzero"/><g clip-path="url(#9c529f0bf4)"><path fill="#151515" d="M 143.460938 49.757812 L 143.460938 32.152344 L 146.714844 32.152344 L 146.714844 38.585938 C 147.671875 37.835938 148.820312 37.476562 150.136719 37.476562 C 153.425781 37.476562 156.09375 40.1875 156.09375 43.75 C 156.09375 45.382812 155.5 46.882812 154.546875 47.960938 C 153.460938 49.203125 151.78125 49.988281 149.972656 49.988281 C 148.753906 49.988281 147.605469 49.628906 146.617188 48.777344 L 146.617188 49.757812 Z M 146.714844 45.546875 C 147.339844 46.425781 148.425781 47.046875 149.644531 47.046875 C 151.453125 47.046875 152.835938 45.675781 152.835938 43.78125 C 152.835938 42.050781 151.617188 40.480469 149.710938 40.480469 C 148.460938 40.480469 147.375 41.070312 146.714844 41.984375 Z M 146.714844 45.546875 " fill-opacity="1" fill-rule="nonzero"/></g><g clip-path="url(#81ca818ad0)"><path fill="#5dbefd" d="M 31.410156 18.726562 C 18.976562 18.726562 8.90625 28.722656 8.90625 41.070312 C 8.90625 53.417969 18.976562 63.414062 31.410156 63.414062 C 43.84375 63.414062 53.910156 53.417969 53.910156 41.070312 C 53.910156 28.722656 43.84375 18.726562 31.410156 18.726562 Z M 19.632812 52.699219 L 22.332031 42.734375 L 27.199219 45.1875 L 29.667969 50.019531 Z M 34.996094 52.40625 L 29.960938 42.574219 L 20.058594 37.574219 L 43.1875 29.472656 Z M 34.996094 52.40625 " fill-opacity="1" fill-rule="nonzero"/></g></svg>