<svg xmlns="http://www.w3.org/2000/svg" xmlns:xlink="http://www.w3.org/1999/xlink" width="220" zoomAndPan="magnify" viewBox="0 0 165 82.499998" height="110" preserveAspectRatio="xMidYMid meet" version="1.0"><defs><clipPath id="67d79b6aa1"><path d="M 0.496094 0 L 164.503906 0 L 164.503906 82.003906 L 0.496094 82.003906 Z M 0.496094 0 " clip-rule="nonzero"/></clipPath><clipPath id="79f9546e0d"><path d="M 7.222656 27.152344 L 157.855469 27.152344 L 157.855469 55 L 7.222656 55 Z M 7.222656 27.152344 " clip-rule="nonzero"/></clipPath><clipPath id="3ccc5bb2cd"><path d="M 30.617188 41.726562 L 30.617188 41.902344 C 31.710938 40.773438 33.261719 40.453125 34.777344 40.453125 C 35.765625 40.453125 36.332031 40.59375 36.789062 40.808594 L 36.789062 36.714844 C 36.507812 36.605469 36.085938 36.535156 35.554688 36.535156 C 32.765625 36.535156 31.214844 38.441406 30.613281 41.722656 M 116.636719 36.890625 C 117.519531 38.621094 118.332031 42.007812 118.332031 43.703125 L 118.578125 43.703125 L 122.035156 36.890625 Z M 101.78125 36.890625 L 96.347656 36.890625 L 103.652344 54.746094 L 104.003906 54.746094 L 106.71875 49.0625 Z M 111.625 36.890625 L 106.195312 36.890625 L 113.496094 54.746094 L 113.851562 54.746094 L 116.566406 49.0625 Z M 16.535156 39.257812 L 21.441406 39.257812 L 21.441406 36.890625 L 16.535156 36.890625 Z M 88.867188 39.257812 L 93.773438 39.257812 L 93.773438 36.890625 L 88.867188 36.890625 Z M 57.996094 46.34375 C 57.996094 51.214844 60.78125 54.847656 64.875 54.847656 C 67.273438 54.847656 69.074219 53.402344 70.203125 51.179688 L 70.203125 50.96875 C 69.601562 51.285156 68.863281 51.496094 68.085938 51.496094 C 65.335938 51.460938 63.324219 49.0625 63.324219 45.394531 C 63.324219 40.597656 66.253906 37.347656 70.097656 37.347656 L 70.097656 37.066406 C 69.289062 36.714844 68.230469 36.539062 67.132812 36.539062 C 61.945312 36.539062 57.996094 40.664062 57.996094 46.347656 M 47.480469 36.539062 C 42.292969 36.539062 38.414062 40.453125 38.414062 45.816406 C 38.414062 51.179688 42.082031 54.847656 47.199219 54.847656 C 50.65625 54.847656 53.441406 53.121094 54.78125 50.050781 L 54.78125 49.734375 C 53.726562 50.6875 51.960938 51.183594 50.195312 51.183594 C 46.207031 51.183594 43.667969 48.605469 43.667969 44.371094 C 43.667969 41.234375 45.078125 37.917969 47.476562 36.789062 Z M 132.160156 36.539062 C 126.972656 36.539062 123.128906 40.453125 123.128906 45.816406 C 123.128906 51.179688 126.796875 54.847656 131.914062 54.847656 C 135.335938 54.847656 138.125 53.121094 139.5 50.050781 L 139.5 49.734375 C 138.441406 50.6875 136.675781 51.183594 134.914062 51.183594 C 130.890625 51.183594 128.386719 48.640625 128.386719 44.371094 C 128.386719 41.234375 129.761719 37.917969 132.160156 36.789062 Z M 45.292969 46.804688 C 45.964844 47.015625 46.777344 47.160156 47.660156 47.160156 C 51.539062 47.160156 54.75 44.546875 54.75 41.445312 C 54.75 38.726562 52.175781 36.574219 48.433594 36.539062 L 48.433594 36.785156 C 49.632812 37.421875 49.917969 38.9375 49.917969 40.277344 C 49.917969 43.738281 47.765625 46.347656 45.292969 46.558594 Z M 129.972656 46.804688 C 130.644531 47.015625 131.492188 47.160156 132.339844 47.160156 C 136.21875 47.160156 139.46875 44.546875 139.46875 41.445312 C 139.46875 38.726562 136.890625 36.574219 133.152344 36.539062 L 133.152344 36.785156 C 134.351562 37.421875 134.632812 38.9375 134.632812 40.277344 C 134.632812 43.738281 132.480469 46.347656 129.976562 46.558594 Z M 29.839844 36.539062 L 24.792969 37.101562 L 24.792969 54.5 L 29.839844 54.5 Z M 71.085938 37.101562 L 71.085938 54.5 L 76.128906 54.5 L 76.128906 36.539062 Z M 19.042969 51.78125 C 16.710938 51.78125 15.300781 50.230469 15.300781 47.652344 L 15.300781 31.914062 L 14.878906 31.914062 L 7.222656 38.867188 L 7.222656 39.257812 L 10.253906 39.257812 L 10.253906 49.136719 C 10.253906 52.875 12.550781 54.851562 15.691406 54.851562 C 18.089844 54.851562 19.996094 53.6875 21.335938 51.605469 L 21.335938 51.359375 C 20.523438 51.640625 19.785156 51.78125 19.042969 51.78125 M 91.40625 51.78125 C 89.042969 51.78125 87.632812 50.230469 87.632812 47.652344 L 87.632812 31.914062 L 87.207031 31.914062 L 79.585938 38.867188 L 79.585938 39.257812 L 82.582031 39.257812 L 82.582031 49.136719 C 82.582031 52.875 84.875 54.851562 88.015625 54.851562 C 90.453125 54.851562 92.359375 53.6875 93.664062 51.605469 L 93.664062 51.359375 C 92.851562 51.640625 92.144531 51.78125 91.402344 51.78125 M 148.214844 27.152344 L 143.167969 27.753906 L 143.167969 54.5 L 148.214844 54.5 Z M 157.777344 27.152344 L 152.734375 27.753906 L 152.734375 54.5 L 157.777344 54.5 Z M 157.777344 27.152344 " clip-rule="nonzero"/></clipPath></defs><g clip-path="url(#67d79b6aa1)"><path fill="#ffffff" d="M 0.496094 0 L 164.503906 0 L 164.503906 89.457031 L 0.496094 89.457031 Z M 0.496094 0 " fill-opacity="1" fill-rule="nonzero"/><path fill="#ffffff" d="M 0.496094 0 L 164.503906 0 L 164.503906 82.003906 L 0.496094 82.003906 Z M 0.496094 0 " fill-opacity="1" fill-rule="nonzero"/></g><g clip-path="url(#79f9546e0d)"><g clip-path="url(#3ccc5bb2cd)"><path fill="#1859a9" d="M 7.222656 27.152344 L 157.855469 27.152344 L 157.855469 54.785156 L 7.222656 54.785156 Z M 7.222656 27.152344 " fill-opacity="1" fill-rule="nonzero"/></g></g></svg>